<svg width="32" height="30" viewBox="0 0 32 30" fill="none" xmlns="http://www.w3.org/2000/svg">
<path d="M15.65 30C24.2933 30 31.3 23.2843 31.3 15C31.3 6.71573 24.2933 0 15.65 0C7.00674 0 0 6.71573 0 15C0 23.2843 7.00674 30 15.65 30Z" fill="#F7931A"/>
<path fill-rule="evenodd" clip-rule="evenodd" d="M22.6818 13.1439C22.9886 11.1787 21.4274 10.1222 19.2927 9.41746L19.9852 6.75531L18.2945 6.35146L17.6204 8.94346C17.1759 8.83731 16.7194 8.73715 16.2658 8.63792L16.9448 6.02885L15.255 5.625L14.5621 8.28623C14.1942 8.20592 13.8331 8.12654 13.4825 8.043L13.4844 8.03469L11.1528 7.47669L10.7031 9.20746C10.7031 9.20746 11.9575 9.483 11.931 9.50008C12.6157 9.66392 12.7395 10.0982 12.7188 10.4425L11.93 13.4753C11.9772 13.4868 12.0384 13.5035 12.1058 13.5293L12.0485 13.5156L12.0485 13.5156C12.0093 13.5062 11.9686 13.4964 11.9271 13.4868L10.8215 17.7353C10.7377 17.9347 10.5254 18.2338 10.0467 18.1202C10.0636 18.1438 8.81784 17.8262 8.81784 17.8262L7.97852 19.6812L10.1787 20.2068C10.4244 20.2659 10.6672 20.3265 10.9074 20.3866L10.9076 20.3866C11.0675 20.4266 11.2262 20.4663 11.384 20.505L10.6843 23.1976L12.373 23.6015L13.066 20.9375C13.5273 21.0575 13.9751 21.1682 14.4133 21.2725L13.7228 23.9241L15.4135 24.3279L16.1131 21.6404C18.9961 22.1633 21.164 21.9524 22.0765 19.4532C22.8118 17.4408 22.0399 16.2801 20.5231 15.5232C21.6277 15.279 22.4598 14.5825 22.6818 13.1439ZM18.8189 18.3358C18.3396 20.182 15.3245 19.4187 13.945 19.0695C13.8209 19.038 13.71 19.01 13.6154 18.9875L14.5438 15.4202C14.659 15.4478 14.7997 15.4781 14.9592 15.5123C16.386 15.8192 19.3101 16.4481 18.8189 18.3358ZM15.2459 13.8569C16.396 14.1511 18.9049 14.7928 19.3419 13.1148C19.7881 11.3985 17.3497 10.8811 16.1589 10.6285C16.0249 10.6001 15.9068 10.575 15.8103 10.5519L14.9685 13.7873C15.048 13.8063 15.1413 13.8302 15.2459 13.8569Z" fill="white"/>
</svg>
