<svg width="80" height="80" viewBox="0 0 80 80" fill="none" xmlns="http://www.w3.org/2000/svg">
<path d="M41.4783 64.8981C38.9177 64.4683 37.0806 62.737 35.4607 61.2095C34.5932 60.3918 33.7728 59.6188 32.8962 59.0641C30.9152 57.8113 29.1488 57.3354 27.4399 56.8753C24.6778 56.1326 21.8215 55.3636 18.7479 51.479C15.6534 47.5669 14.4928 43.8427 15.2007 40.0936C15.8942 36.4167 18.3645 33.2381 20.4384 30.8811C21.7914 29.3417 22.7374 27.4369 23.737 25.4204C24.6071 23.6667 25.5061 21.8539 26.7255 20.2094C29.854 15.9936 32.9001 14.4805 36.9105 15.1536C38.4571 15.4125 40.0469 15.9712 41.7295 16.5628C43.2172 17.0847 44.7547 17.625 46.4779 18.0496C46.6441 18.0903 46.8207 18.1271 47.0013 18.1574C47.8779 18.3046 48.8017 18.3085 49.7778 18.3138C50.8207 18.3191 51.8975 18.3243 52.9927 18.5084C54.3038 18.7279 55.4316 19.1762 56.4378 19.8768C59.5493 22.0419 59.8346 24.5146 60.1107 26.9045C60.2232 27.8786 60.3396 28.8842 60.6497 29.9293C61.0462 31.2623 61.7606 32.4914 62.5169 33.7941C63.6736 35.7844 64.8695 37.843 64.9886 40.4314C65.2175 45.4136 61.9621 48.1808 59.4944 49.8292C58.7028 50.359 57.9229 50.7757 57.1693 51.1793C55.6017 52.018 54.2488 52.7423 53.3604 54.2028C53.0947 54.6392 52.9534 55.3872 52.8173 56.1102C52.6538 56.9779 52.4837 57.8757 52.0663 58.6829C50.5563 61.6065 47.2538 64.6865 43.28 64.981C42.6677 65.023 42.0619 64.9954 41.4783 64.8981Z" fill="#148DFD"/>
<path d="M19.9646 52.5663C24.8604 58.7544 28.8184 56.633 34.5524 60.2599C37.82 62.3258 40.0793 66.6312 44.6754 66.2927C48.1321 66.0374 51.2753 63.39 52.8248 60.3903C53.5485 58.9889 53.4491 56.8758 54.2376 55.5785C55.8659 52.902 58.5534 52.2485 61.1262 50.5308C64.0913 48.5495 66.5012 46.0062 66.3092 41.8313C66.1228 37.759 62.9119 34.873 61.785 31.0796C60.6056 27.1087 61.8734 23.9951 57.8767 21.2118C54.6975 18.9988 51.1262 20.3058 47.8214 19.4914C39.3736 17.4115 34.7582 12.6968 28.4096 21.2535C25.7539 24.8332 24.5538 29.3633 21.7006 32.6059C16.6294 38.3737 13.4696 44.3565 19.9646 52.5663Z" fill="#148DFD"/>
<path d="M47.5077 38.4837H43.5824V29.2946C43.5824 27.1504 42.4264 26.7165 41.0163 28.3246L40.0001 29.486L31.4 39.3132C30.2186 40.6533 30.714 41.7509 32.4924 41.7509H36.4178V50.94C36.4178 53.0841 37.5738 53.518 38.9838 51.9099L40.0001 50.7485L48.6002 40.9213C49.7816 39.5812 49.2861 38.4837 47.5077 38.4837Z" fill="white"/>
</svg>
